<?xml version="1.0" encoding="UTF-8"?>
<svg version="1.1" xmlns="http://www.w3.org/2000/svg" width="1222" height="818">
<path fill="red" d="M0 0 C4.54743643 0.38978027 7.34316528 2.3879752 11 5 C15.27066027 7.96009268 15.27066027 7.96009268 20 10 C20 10.66 20 11.32 20 12 C20.721875 12.103125 21.44375 12.20625 22.1875 12.3125 C26.22741361 13.30003444 29.07173897 15.07173897 32 18 C32.99 18.495 33.98 18.99 35 19.5 C38 21 38 21 40 23 C41.31329362 23.72504752 42.64941117 24.40954989 44 25.0625 C44.70125 25.40410156 45.4025 25.74570313 46.125 26.09765625 C46.74375 26.39542969 47.3625 26.69320312 48 27 C48.66 27.33 49.32 27.66 50 28 C50 28.66 50 29.32 50 30 C50.721875 30.0825 51.44375 30.165 52.1875 30.25 C55.59321217 31.15818991 57.30050938 32.76139802 60 35 C61.97522846 36.04808041 63.97481509 37.0520411 66 38 C67.33333333 38.66666667 68.66666667 39.33333333 70 40 C70 40.66 70 41.32 70 42 C71.175625 42.185625 71.175625 42.185625 72.375 42.375 C75 43 75 43 77 45 C77.33 45.66 77.66 46.32 78 47 C80.33163378 47.67258667 82.6652039 48.33847444 85 49 C87.77764789 50.48141221 89.77719542 51.77719542 92 54 C92.99 54.495 93.98 54.99 95 55.5 C98.0358772 57.0179386 99.48655248 57.97310496 101 61 C102.66128463 61.35919668 104.32900023 61.68911632 106 62 C108.3125 63.0625 108.3125 63.0625 110 64 C110 64.66 110 65.32 110 66 C110.721875 66.0825 111.44375 66.165 112.1875 66.25 C115.56537138 67.1507657 117.34878227 68.7673956 120 71 C120.99 71.33 121.98 71.66 123 72 C123 72.66 123 73.32 123 74 C124.65 74.33 126.3 74.66 128 75 C128 75.66 128 76.32 128 77 C128.78375 77.144375 129.5675 77.28875 130.375 77.4375 C133 78 133 78 135 79 C135 79.66 135 80.32 135 81 C135.99 81 136.98 81 138 81 C138.66 81.66 139.32 82.32 140 83 C141.98320018 84.03291676 143.98347806 85.0337499 146 86 C146.66 86.33 147.32 86.66 148 87 C148 87.66 148 88.32 148 89 C149.65 89.33 151.3 89.66 153 90 C153 90.66 153 91.32 153 92 C154.175625 92.185625 154.175625 92.185625 155.375 92.375 C158 93 158 93 160 95 C160.99 95.66 161.98 96.32 163 97 C163.27976011 99.53087096 163.37241371 101.81401909 163.328125 104.34375 C163.32625183 105.06864624 163.32437866 105.79354248 163.32244873 106.54040527 C163.31572341 108.07369584 163.30179926 109.60696911 163.28125 111.14013672 C163.25012287 113.49072157 163.2402827 115.84063584 163.234375 118.19140625 C163.22520385 119.6796957 163.21482772 121.16797831 163.203125 122.65625 C163.19887512 123.36148804 163.19462524 124.06672607 163.19024658 124.79333496 C163.11721092 129.76557815 163.11721092 129.76557815 162 132 C161.91600466 133.34273997 161.89272745 134.68958191 161.90234375 136.03491211 C161.90564697 136.86594955 161.9089502 137.696987 161.91235352 138.5532074 C161.92480103 139.90165489 161.92480103 139.90165489 161.9375 141.27734375 C161.94128662 142.19963272 161.94507324 143.12192169 161.94897461 144.07215881 C161.96536703 148.02789646 161.99348245 151.983532 162.02050781 155.93920898 C162.0385522 158.82274908 162.05067325 161.70627254 162.0625 164.58984375 C162.07494751 165.9352549 162.07494751 165.9352549 162.08764648 167.30784607 C162.09094971 168.14203568 162.09425293 168.97622528 162.09765625 169.83569336 C162.10551147 170.93584023 162.10551147 170.93584023 162.11352539 172.05821228 C162 174 162 174 161 177 C160.91881454 178.40615625 160.89244544 179.81590206 160.90234375 181.22436523 C160.90564697 182.07212021 160.9089502 182.91987518 160.91235352 183.7933197 C160.92480103 185.16213036 160.92480103 185.16213036 160.9375 186.55859375 C160.94128662 187.49929214 160.94507324 188.43999054 160.94897461 189.40919495 C160.96533839 193.43666862 160.99346306 197.46404125 161.02050781 201.49145508 C161.0385752 204.43049655 161.05068129 207.36952159 161.0625 210.30859375 C161.07494751 211.67436806 161.07494751 211.67436806 161.08764648 213.06773376 C161.09094971 213.9186409 161.09425293 214.76954803 161.09765625 215.64624023 C161.10551147 216.76517921 161.10551147 216.76517921 161.11352539 217.90672302 C161 220 161 220 160.50099182 221.90522766 C159.85574214 224.60317828 159.88054702 227.09600335 159.88647461 229.87011719 C159.88658791 231.64150055 159.88658791 231.64150055 159.88670349 233.44866943 C159.89186478 234.71857727 159.89702606 235.98848511 159.90234375 237.296875 C159.9037587 238.60078186 159.90517365 239.90468872 159.90663147 241.24810791 C159.91044133 244.70703055 159.92025849 248.16591091 159.93133545 251.62481689 C159.94158254 255.15742419 159.94613615 258.69003836 159.95117188 262.22265625 C159.96188218 269.14845482 159.97894016 276.07422538 160 283 C159.34 283 158.68 283 158 283 C157.67 283.66 157.34 284.32 157 285 C156.01 285.33 155.02 285.66 154 286 C153.154375 286.845625 152.30875 287.69125 151.4375 288.5625 C150.633125 289.366875 149.82875 290.17125 149 291 C148.34 291 147.68 291 147 291 C146.2575 291.45375 145.515 291.9075 144.75 292.375 C141.89627278 294.06129336 139.16376929 295.04351161 136 296 C136 296.99 136 297.98 136 299 C135.2575 299.103125 134.515 299.20625 133.75 299.3125 C130.96192452 299.8117379 130.96192452 299.8117379 129 301.5625 C127 303 127 303 122 303 C121.67 241.95 121.34 180.9 121 118 C118.69 117.34 116.38 116.68 114 116 C113.67 115.01 113.34 114.02 113 113 C112.34 113.33 111.68 113.66 111 114 C111 113.34 111 112.68 111 112 C110.34 111.7525 109.68 111.505 109 111.25 C104.10470201 109.21029251 99.41547285 106.94364857 95 104 C94.01 103.67 93.02 103.34 92 103 C91.34 102.34 90.68 101.68 90 101 C89.34 101 88.68 101 88 101 C88 100.34 88 99.68 88 99 C87.13375 98.731875 86.2675 98.46375 85.375 98.1875 C76.77419355 95.16129032 76.77419355 95.16129032 74 91 C73.175 90.835 72.35 90.67 71.5 90.5 C70.675 90.335 69.85 90.17 69 90 C68.34 89.01 67.68 88.02 67 87 C66.01 87 65.02 87 64 87 C63.67 86.34 63.34 85.68 63 85 C60.6859378 84.26924352 58.35171131 83.59861742 56 83 C56 82.34 56 81.68 56 81 C55.21625 80.855625 54.4325 80.71125 53.625 80.5625 C51 80 51 80 49 79 C49 78.34 49 77.68 49 77 C48.01 77 47.02 77 46 77 C45 76 44 75 43 74 C42.319375 73.835 41.63875 73.67 40.9375 73.5 C39 73 39 73 37 70 C35.34795544 69.29788106 33.68076231 68.63028587 32 68 C31.34 67.34 30.68 66.68 30 66 C29.01 66.495 29.01 66.495 28 67 C27.34 66.34 26.68 65.68 26 65 C25.05125 64.690625 24.1025 64.38125 23.125 64.0625 C20.12395196 63.04214367 18.43803212 61.9504257 16 60 C14.68163705 59.30419733 13.35208914 58.62775567 12 58 C12 57.34 12 56.68 12 56 C11.2575 55.9175 10.515 55.835 9.75 55.75 C6.47076121 54.85566215 5.32354246 53.40099388 3 51 C2.01 51 1.02 51 0 51 C0 50.34 0 49.68 0 49 C-6.60100834 49.4625376 -6.60100834 49.4625376 -12 53 C-12.99 53.66 -13.98 54.32 -15 55 C-15 54.34 -15 53.68 -15 53 C-15.66 53 -16.32 53 -17 53 C-18.05270463 55.63106761 -18.05270463 55.63106761 -18 57 C-14.44339375 60.11203047 -10.22337257 61.97058721 -6 64 C-5.34 64.33 -4.68 64.66 -4 65 C-4 65.66 -4 66.32 -4 67 C-3.175 67.061875 -2.35 67.12375 -1.5 67.1875 C3.78103284 68.41345405 8.17000408 71.17000408 12 75 C12.33 75.66 12.66 76.32 13 77 C13.9075 76.9175 14.815 76.835 15.75 76.75 C19.74155483 77.05704268 20.42337617 78.07982633 23 81 C24.93330603 82.09166275 24.93330603 82.09166275 27 83 C28.66666667 84 30.33333333 85 32 86 C33.32608822 86.68096422 34.65686601 87.35330586 36 88 C36 88.66 36 89.32 36 90 C37.65 90.33 39.3 90.66 41 91 C41 91.66 41 92.32 41 93 C41.7425 93.103125 42.485 93.20625 43.25 93.3125 C46.25112049 94.06278012 47.56034387 95.15450367 50 97 C51.52417315 97.80487038 53.06744016 98.57430796 54.625 99.3125 C59.16832667 101.53039616 63.47282872 104.01335844 67.7734375 106.66796875 C69.95507611 108.01695926 69.95507611 108.01695926 72.1640625 109.05078125 C74 110 74 110 76 112 C80.32395399 114.19305983 80.32395399 114.19305983 85 115 C86.33333333 116.33333333 87.66666667 117.66666667 89 119 C91.2140522 120.30238365 92.43292258 121 95 121 C95.598125 121.639375 96.19625 122.27875 96.8125 122.9375 C99.26700181 125.25174456 100.70523261 125.63391473 104 126 C104.89290639 129.06410982 105.12560393 131.79601616 105.12698364 134.98284912 C105.12980347 135.98648499 105.13262329 136.99012085 105.13552856 138.02416992 C105.13249222 139.66687866 105.13249222 139.66687866 105.12939453 141.34277344 C105.13202301 143.08001678 105.13202301 143.08001678 105.13470459 144.85235596 C105.13911219 148.68804414 105.13618815 152.52368633 105.1328125 156.359375 C105.13348604 159.02492327 105.13445499 161.69047014 105.13571167 164.35601807 C105.13753096 169.94796243 105.13513441 175.53989358 105.13037109 181.13183594 C105.12493958 187.58240184 105.12668401 194.03293608 105.1321975 200.4835012 C105.1367482 206.03100979 105.1373693 211.5785089 105.13475883 217.12601876 C105.13320544 220.4349886 105.13337293 223.74394044 105.13629532 227.05290985 C105.13884192 230.74851094 105.1349524 234.44405182 105.12939453 238.13964844 C105.13141876 239.22669067 105.13344299 240.31373291 105.13552856 241.43371582 C105.1198881 247.06305519 104.76983065 252.42698372 104 258 C103.89590415 260.1066133 103.82649369 262.2152751 103.79467773 264.32421875 C103.77473251 265.50483887 103.75478729 266.68545898 103.73423767 267.90185547 C103.71752518 269.15111816 103.70081268 270.40038086 103.68359375 271.6875 C103.6524221 273.63487061 103.6524221 273.63487061 103.62062073 275.62158203 C103.56583066 279.04749633 103.51623439 282.47346621 103.46777344 285.8994751 C103.41724076 289.40568906 103.36172174 292.91182382 103.30664062 296.41796875 C103.19958713 303.278577 103.0980284 310.13925702 103 317 C101.02 317.33 99.04 317.66 97 318 C96.67 318.99 96.34 319.98 96 321 C95.01 320.67 94.02 320.34 93 320 C92.62875 320.45375 92.2575 320.9075 91.875 321.375 C90 323 90 323 87.0625 323.9375 C83.71896625 325.0975015 82.41387384 326.50288913 80 329 C79.01 329 78.02 329 77 329 C76.38125 329.66 75.7625 330.32 75.125 331 C73 333 73 333 68 333 C68 273.27 68 213.54 68 152 C68.66 152 69.32 152 70 152 C66.78270212 148.05149805 62.89153141 146.37160588 58.3984375 144.23046875 C55.62181039 142.80597764 53.39673128 140.98586306 51 139 C48.59877023 137.88723498 46.38854323 137.08880988 43.8125 136.5 C42 136 42 136 40 134 C38.58092166 132.97402587 37.14074785 131.97697335 35.6875 131 C34.92824219 130.484375 34.16898438 129.96875 33.38671875 129.4375 C30.983786 127.99023445 28.6217376 126.98370054 26 126 C25.34 125.67 24.68 125.34 24 125 C24 124.34 24 123.68 24 123 C22.4221875 122.62875 22.4221875 122.62875 20.8125 122.25 C17.15531115 121.21980596 14.91158579 119.45186172 12 117 C11.23042969 116.70222656 10.46085938 116.40445313 9.66796875 116.09765625 C5.80525545 114.50845795 2.74221097 112.03390366 -0.59765625 109.55859375 C-2.85168836 108.0962217 -4.43351578 107.58921492 -7 107 C-7.61875 106.0409375 -7.61875 106.0409375 -8.25 105.0625 C-10.59485245 102.2989239 -12.67803726 102.20625067 -16.1328125 101.50390625 C-18.43690138 100.88209147 -19.50628162 99.8256558 -21 98 C-21.66 98 -22.32 98 -23 98 C-23.5775 97.38125 -24.155 96.7625 -24.75 96.125 C-26.91262918 93.77210385 -26.91262918 93.77210385 -30.1875 93 C-31.115625 92.67 -32.04375 92.34 -33 92 C-33.875 89.875 -33.875 89.875 -34 88 C-35.0725 87.896875 -36.145 87.79375 -37.25 87.6875 C-40.88155382 87.02171513 -42.43944829 86.56055171 -45 84 C-45.33 83.01 -45.66 82.02 -46 81 C-47.65 81 -49.3 81 -51 81 C-51.33 80.34 -51.66 79.68 -52 79 C-55.69279775 77.87916549 -57.57188355 77.83802407 -61.2109375 79.21484375 C-62.25507812 79.78332031 -63.29921875 80.35179687 -64.375 80.9375 C-65.43460938 81.50339844 -66.49421875 82.06929688 -67.5859375 82.65234375 C-68.38257813 83.09707031 -69.17921875 83.54179687 -70 84 C-69.01 85.485 -69.01 85.485 -68 87 C-67.67 87.66 -67.34 88.32 -67 89 C-65.33499557 89.34153937 -63.66821323 89.67449498 -62 90 C-61.34 90.66 -60.68 91.32 -60 92 C-59.01 92.495 -58.02 92.99 -57 93.5 C-54 95 -54 95 -52 97 C-50.6846659 97.70151152 -49.34882408 98.36525925 -48 99 C-45.47924835 100.18623607 -43.99550146 101.00449854 -42 103 C-39.07797777 104.84548772 -36.11326839 106.50101892 -33 108 C-33 108.66 -33 109.32 -33 110 C-32.26265625 110.10828125 -31.5253125 110.2165625 -30.765625 110.328125 C-27.83486059 111.04011861 -26.18304165 112.00181452 -23.75 113.75 C-19.88153314 116.45013794 -15.93196703 118.74376717 -11.75 120.921875 C-10 122 -10 122 -9 124 C-7.33927151 124.68132451 -5.672233 125.34742127 -4 126 C-3.34 126.66 -2.68 127.32 -2 128 C-1.01 128.495 -0.02 128.99 1 129.5 C4 131 4 131 6 133 C7.37676718 133.82437791 8.77577324 134.6120358 10.1875 135.375 C10.98671875 135.81199219 11.7859375 136.24898437 12.609375 136.69921875 C13.39828125 137.12847656 14.1871875 137.55773437 15 138 C21.67782427 141.67782427 21.67782427 141.67782427 24 144 C24.99 144.495 25.98 144.99 27 145.5 C30 147 30 147 32 149 C32.804375 149.309375 33.60875 149.61875 34.4375 149.9375 C37.75514872 151.31311045 39.40286147 152.80572295 41 156 C42.65391846 156.39171753 44.32345271 156.72057545 46 157 C46.99 157.33 47.98 157.66 49 158 C48.99476318 158.59538574 48.98952637 159.19077148 48.98413086 159.80419922 C48.96338001 162.49445547 48.95034593 165.18469489 48.9375 167.875 C48.92912109 168.81214844 48.92074219 169.74929688 48.91210938 170.71484375 C48.90888672 171.61074219 48.90566406 172.50664062 48.90234375 173.4296875 C48.89710693 174.25710449 48.89187012 175.08452148 48.88647461 175.93701172 C48.86647862 178.06411757 48.86647862 178.06411757 50 180 C50.08680963 182.2108568 50.10702993 184.42442231 50.09765625 186.63696289 C50.09619598 187.31839859 50.09473572 187.99983429 50.0932312 188.70191956 C50.08942281 190.18282354 50.08330371 191.66372294 50.07516479 193.14460945 C50.06243395 195.48479751 50.05589425 197.82492912 50.05102539 200.16514587 C50.03958154 205.13095588 50.02033244 210.09671947 50 215.0625 C49.97645049 220.81841634 49.95604627 226.57430628 49.94406128 232.33025932 C49.93755111 234.64200731 49.92504387 236.95367496 49.91235352 239.26539612 C49.90872291 240.67440723 49.90537094 242.0834191 49.90234375 243.49243164 C49.89710693 244.7277211 49.89187012 245.96301056 49.88647461 247.23573303 C49.68362528 249.90945713 49.68362528 249.90945713 51 251 C51.08846568 252.76949203 51.10689406 254.542531 51.09765625 256.31420898 C51.09270142 258.0161869 51.09270142 258.0161869 51.08764648 259.75254822 C51.07934814 260.98791824 51.0710498 262.22328827 51.0625 263.49609375 C51.05682007 265.38461815 51.05682007 265.38461815 51.05102539 267.31129456 C51.03666954 272.04020921 51.01343789 276.7690505 50.98962402 281.4979248 C50.96680319 286.12230606 50.95139785 290.74667527 50.9375 295.37109375 C50.92920166 296.60443954 50.92090332 297.83778534 50.91235352 299.10850525 C50.90739868 300.81521141 50.90739868 300.81521141 50.90234375 302.55639648 C50.89710693 303.56153793 50.89187012 304.56667938 50.88647461 305.60227966 C50.83870979 308.01442951 50.83870979 308.01442951 52 310 C52.09659128 311.70747864 52.13075537 313.41869897 52.1328125 315.12890625 C52.13410156 316.16466797 52.13539063 317.20042969 52.13671875 318.26757812 C52.13285156 319.35490234 52.12898437 320.44222656 52.125 321.5625 C52.12886719 322.62275391 52.13273438 323.68300781 52.13671875 324.77539062 C52.11560956 341.88439044 52.11560956 341.88439044 49 345 C47 346.33333333 45 347.66666667 43 349 C42.34 349.66 41.68 350.32 41 351 C39.01363702 351.70626239 37.01151741 352.36893571 35 353 C30.75184667 354.42737848 30.75184667 354.42737848 28 358 C27.34 358 26.68 358 26 358 C24.37485532 359.45833358 24.37485532 359.45833358 23 361 C22.34 360.67 21.68 360.34 21 360 C20.5875 360.474375 20.175 360.94875 19.75 361.4375 C18 363 18 363 15.9375 363.5 C13.60312807 363.87267251 13.60312807 363.87267251 12 367 C11.34 367 10.68 367 10 367 C10 366.34 10 365.68 10 365 C9.01 364.67 8.02 364.34 7 364 C7.66 363.34 8.32 362.68 9 362 C9.18305692 358.76599443 9.17947561 355.83370808 8.49621773 352.65980816 C7.93252507 349.63832337 7.87407812 346.82959902 7.87301636 343.75556946 C7.87019653 342.4978775 7.86737671 341.24018555 7.86447144 339.94438171 C7.86641553 338.55837998 7.86846368 337.17237839 7.87060547 335.78637695 C7.86924987 334.32092241 7.86746905 332.85546821 7.86529541 331.39001465 C7.86074113 327.41715414 7.86250208 323.44431963 7.8656745 319.47145867 C7.868207 315.31505275 7.8658582 311.15864905 7.86428833 307.00224304 C7.86246985 300.02582398 7.86486516 293.0494155 7.86962891 286.07299805 C7.8750773 278.0005478 7.87330339 269.92812278 7.8678025 261.85567313 C7.86326985 254.92735843 7.86262138 247.99905134 7.86524117 241.07073563 C7.86680228 236.93142831 7.8670021 232.79213287 7.86370468 228.65282631 C7.86082355 224.76472664 7.86280613 220.87665966 7.86859894 216.98856354 C7.86992496 215.5590616 7.86953508 214.12955693 7.86733627 212.70005608 C7.86461879 210.75453157 7.86862484 208.80900107 7.87301636 206.86347961 C7.8735819 205.22782028 7.8735819 205.22782028 7.87415886 203.55911732 C8 201 8 201 9 199 C9.07139635 196.85525356 9.08403003 194.70832646 9.0625 192.5625 C9.05347656 191.40878906 9.04445313 190.25507813 9.03515625 189.06640625 C9.02355469 188.05449219 9.01195312 187.04257812 9 186 C9 185.01 9 184.02 9 183 C6.05763218 180.78831775 6.05763218 180.78831775 3 179 C2.34 179.33 1.68 179.66 1 180 C0.236875 179.175 -0.52625 178.35 -1.3125 177.5 C-3.75434142 174.65944803 -3.75434142 174.65944803 -7 175 C-7 174.34 -7 173.68 -7 173 C-9.32927816 171.7457733 -11.44624637 170.86984481 -14 170.125 C-17.27256845 168.89778683 -18.57046271 167.42953729 -21 165 C-23.52733235 164.34444881 -23.52733235 164.34444881 -26 164 C-27.485 163.01 -27.485 163.01 -29 162 C-29 161.34 -29 160.68 -29 160 C-29.70125 159.731875 -30.4025 159.46375 -31.125 159.1875 C-34.16555764 157.93161749 -37.05830412 156.47084794 -40 155 C-40.86625 154.690625 -41.7325 154.38125 -42.625 154.0625 C-45 153 -45 153 -46.875 151.0625 C-49.59105032 148.42633352 -52.54181514 147.47293059 -56 146 C-56.66 145.01 -57.32 144.02 -58 143 C-58.99 143 -59.98 143 -61 143 C-62.33333333 141.66666667 -63.66666667 140.33333333 -65 139 C-65.99 139 -66.98 139 -68 139 C-69.02196992 138.02246356 -70.01979625 137.0194119 -71 136 C-72.93330603 134.90833725 -72.93330603 134.90833725 -75 134 C-77.93161412 132.66744813 -79.73729597 131.26270403 -82 129 C-83.66014616 128.63557767 -85.32706064 128.30027117 -87 128 C-88.17749808 126.82250192 -89.3341596 125.62225436 -90.4375 124.375 C-92.02846455 122.66968605 -92.02846455 122.66968605 -95 123 C-96 122 -97 121 -98 120 C-99.32594105 119.63837971 -100.65938457 119.30271961 -102 119 C-102.99 118.01 -102.99 118.01 -104 117 C-105.2065625 116.5359375 -105.2065625 116.5359375 -106.4375 116.0625 C-108.98898982 115.00456519 -110.3006783 114.14651162 -112 112 C-112 111.34 -112 110.68 -112 110 C-113.36125 109.814375 -113.36125 109.814375 -114.75 109.625 C-117.58970323 109.07890323 -119.52590591 108.42736197 -122 107 C-122 106.01 -122 105.02 -122 104 C-123.7015625 103.814375 -123.7015625 103.814375 -125.4375 103.625 C-126.613125 103.41875 -127.78875 103.2125 -129 103 C-129.495 102.01 -129.495 102.01 -130 101 C-130.99 101 -131.98 101 -133 101 C-134.33333333 99.66666667 -135.66666667 98.33333333 -137 97 C-138.32488113 96.63451555 -139.66018514 96.3062434 -141 96 C-144.82631056 94.31470366 -147.46239673 93.02845842 -149.4375 89.25 C-149.623125 88.5075 -149.80875 87.765 -150 87 C-148.515 86.505 -148.515 86.505 -147 86 C-146.01 85.01 -146.01 85.01 -145 84 C-143.34603776 83.30241048 -141.67714947 82.63983737 -140 82 C-138.24011695 81.18774628 -136.48985973 80.35430238 -134.75 79.5 C-133.87859375 79.0771875 -133.0071875 78.654375 -132.109375 78.21875 C-129.85889085 77.17671697 -129.85889085 77.17671697 -129 75 C-127.68 75 -126.36 75 -125 75 C-124.67 74.34 -124.34 73.68 -124 73 C-121.87560184 71.56061186 -119.75483235 70.20212311 -117.5625 68.875 C-116.96373047 68.50246094 -116.36496094 68.12992187 -115.74804688 67.74609375 C-111.25672505 65 -111.25672505 65 -109 65 C-108.36578125 64.35611328 -108.36578125 64.35611328 -107.71875 63.69921875 C-105.53445944 61.53974967 -103.19467975 60.27936196 -100.5 58.8125 C-99.5409375 58.28269531 -98.581875 57.75289062 -97.59375 57.20703125 C-95 56 -95 56 -92 56 C-92 55.34 -92 54.68 -92 54 C-85.375 50 -85.375 50 -82 50 C-82 49.34 -82 48.68 -82 48 C-81.195625 47.87625 -80.39125 47.7525 -79.5625 47.625 C-78.716875 47.41875 -77.87125 47.2125 -77 47 C-76.505 46.01 -76.505 46.01 -76 45 C-71.97369714 41.42106412 -68.48927262 39 -63 39 C-62.505 38.01 -62.505 38.01 -62 37 C-60.33333333 36.33333333 -58.66666667 35.66666667 -57 35 C-56.505 34.01 -56.505 34.01 -56 33 C-55.01 33 -54.02 33 -53 33 C-52.505 32.01 -52.505 32.01 -52 31 C-47.38478401 27.85121716 -42.46675062 25.1735157 -37.4375 22.75 C-33.95539066 21.40593741 -33.95539066 21.40593741 -33 19 C-31.33911161 18.31906537 -29.67111705 17.65543117 -28 17 C-25.99930634 15.82765406 -24.02178836 14.61530612 -22.0625 13.375 C-16.59160381 9.94173351 -11.037472 6.69022563 -5.40649414 3.52685547 C-2.529625 2.00520947 -2.529625 2.00520947 0 0 Z M93 101 C94 103 94 103 94 103 Z M27 124 C28 126 28 126 28 126 Z " fill="red" transform="translate(609,183)"/>
<path d="M0 0 C0.66 0 1.32 0 2 0 C2.33 1.65 2.66 3.3 3 5 C3.66 5 4.32 5 5 5 C5.57492187 5.59554688 6.14984375 6.19109375 6.7421875 6.8046875 C9.34576391 9.33619259 11.84552998 10.58598581 15.125 12.125 C22.2416 15.4832 22.2416 15.4832 24 19 C26.52733235 19.65555119 26.52733235 19.65555119 29 20 C29 20.66 29 21.32 29 22 C29.721875 22.103125 30.44375 22.20625 31.1875 22.3125 C34.27793421 23.06793947 36.41743841 24.15531315 39 26 C39 26.66 39 27.32 39 28 C39.66 28.33 40.32 28.66 41 29 C41 51.44 41 73.88 41 97 C41.66 97 42.32 97 43 97 C45 99 45 99 46 101 C47.66666667 101.33333333 49.33333333 101.66666667 51 102 C53.13037332 102.96494952 55.23456409 103.98928035 57.3125 105.0625 C58.91544922 105.88427734 58.91544922 105.88427734 60.55078125 106.72265625 C61.35902344 107.14417969 62.16726563 107.56570313 63 108 C63 108.66 63 109.32 63 110 C63.680625 110.0825 64.36125 110.165 65.0625 110.25 C69.66499847 111.42510599 73.61544251 113.61544251 77 117 C78.9798099 118.0394002 80.98582 119.0288775 83 120 C84.75236439 120.84930544 86.50223417 121.70377112 88.25 122.5625 C89.52617188 123.18318359 89.52617188 123.18318359 90.828125 123.81640625 C93 125 93 125 95 127 C96.31329362 127.72504752 97.64941117 128.40954989 99 129.0625 C99.70125 129.40410156 100.4025 129.74570312 101.125 130.09765625 C101.74375 130.39542969 102.3625 130.69320312 103 131 C103.66 131.33 104.32 131.66 105 132 C105.02317818 123.98529045 105.04094303 115.97059493 105.05181217 107.95586014 C105.05702901 104.23423325 105.0641049 100.51262931 105.07543945 96.79101562 C105.08631093 93.19893926 105.09228588 89.60688495 105.09487724 86.0147934 C105.0967238 84.64488121 105.10032966 83.27497023 105.10573006 81.90506744 C105.11299688 79.98522623 105.11340854 78.06536278 105.11352539 76.14550781 C105.115746 75.05296692 105.11796661 73.96042603 105.12025452 72.83477783 C105.11084965 70.06477256 105.11084965 70.06477256 104.36790466 67.74090576 C104.24649612 67.16640686 104.12508759 66.59190796 104 66 C104.66 65.34 105.32 64.68 106 64 C106.99 64 107.98 64 109 64 C109.99 63.67 110.98 63.34 112 63 C112.495 64.485 112.495 64.485 113 66 C113.66 66.66 114.32 67.32 115 68 C114.67 68.66 114.34 69.32 114 70 C115.175625 70.185625 115.175625 70.185625 116.375 70.375 C119 71 119 71 121 73 C122.3153341 73.70151152 123.65117592 74.36525925 125 75 C128.23843106 76.52396756 130.34264425 77.6852885 132 81 C134.52733235 81.65555119 134.52733235 81.65555119 137 82 C137 82.66 137 83.32 137 84 C138.32 83.67 139.64 83.34 141 83 C141 83.66 141 84.32 141 85 C143.475 84.505 143.475 84.505 146 84 C146.99 85.485 146.99 85.485 148 87 C148.66 87 149.32 87 150 87 C150 143.76 150 200.52 150 259 C150.66 259 151.32 259 152 259 C151.60196439 261.88575819 151.20990931 262.82189513 148.9375 264.75 C148.298125 265.1625 147.65875 265.575 147 266 C146.34 265.34 145.68 264.68 145 264 C142.93125966 263.3574765 142.93125966 263.3574765 141 263 C141 262.34 141 261.68 141 261 C140.01 261 139.02 261 138 261 C137 260 136 259 135 258 C133.01922047 256.96244882 131.01470098 255.97004121 129 255 C127.47521943 254.15289968 125.95459837 253.29828293 124.4375 252.4375 C121.34745074 250.70645234 118.31638277 249.25484753 115 248 C108.36193987 244.94649234 108.36193987 244.94649234 106 242 C105.63250732 239.97796631 105.63250732 239.97796631 105.64355469 237.63964844 C105.64055359 236.76153503 105.63755249 235.88342163 105.63446045 234.97869873 C105.65298065 233.55838348 105.65298065 233.55838348 105.671875 232.109375 C105.67374817 231.13139954 105.67562134 230.15342407 105.67755127 229.14581299 C105.68427709 227.07455035 105.69820203 225.00330053 105.71875 222.93212891 C105.74974225 219.77624575 105.75970654 216.62086364 105.765625 213.46484375 C105.77480235 211.45051481 105.78518044 209.4361909 105.796875 207.421875 C105.80112488 206.48309509 105.80537476 205.54431519 105.80975342 204.5770874 C105.86317558 199.62428151 106.19044654 194.89980573 107 190 C107.20728203 187.68918918 107.39550518 185.37657114 107.5625 183.0625 C107.68818359 181.34740234 107.68818359 181.34740234 107.81640625 179.59765625 C107.87699219 178.74042969 107.93757812 177.88320313 108 177 C107.01 177.33 106.02 177.66 105 178 C102.9375 176.625 102.9375 176.625 101 175 C100.34 174.67 99.68 174.34 99 174 C98.360625 173.67 97.72125 173.34 97.0625 173 C94.8881755 171.89087006 94.8881755 171.89087006 92 171 C90.66666667 169.66666667 89.33333333 168.33333333 88 167 C86.68451064 166.29877966 85.34805244 165.63637791 84 165 C83.24203125 164.60941406 82.4840625 164.21882812 81.703125 163.81640625 C77.73190716 161.78653216 73.85071961 159.87772653 69.625 158.4375 C65.99782544 156.99913767 64.63844076 155.72638878 62 153 C60.00827818 152.30899447 58.00838196 151.64097297 56 151 C54.97895449 150.02149805 53.9793879 149.02019573 53 148 C51.01753602 146.96567096 49.01586684 145.96761608 47 145 C44.125 143.4375 44.125 143.4375 42 142 C42 141.34 42 140.68 42 140 C41.34 140 40.68 140 40 140 C40 162.44 40 184.88 40 208 C39.34 207.67 38.68 207.34 38 207 C38 206.34 38 205.68 38 205 C37.1646875 205.4021875 37.1646875 205.4021875 36.3125 205.8125 C35.549375 205.874375 34.78625 205.93625 34 206 C32.33333333 204.33333333 30.66666667 202.66666667 29 201 C25.81849108 200.12010026 25.81849108 200.12010026 23 200 C22.505 198.02 22.505 198.02 22 196 C21.2265625 195.8453125 21.2265625 195.8453125 20.4375 195.6875 C18 195 18 195 14.4375 193.375 C11.09603497 191.60913154 11.09603497 191.60913154 8 193 C7.34 192.01 6.68 191.02 6 190 C5.01 189.67 4.02 189.34 3 189 C2.33333333 187.66666667 1.66666667 186.33333333 1 185 C0.01 184.67 -0.98 184.34 -2 184 C-2.04667667 160.45235267 -2.08196756 136.90471225 -2.10362434 113.35702801 C-2.11394628 102.42395674 -2.1280241 91.49091417 -2.15087891 80.55786133 C-2.17078474 71.03098415 -2.18370976 61.50412776 -2.18817699 51.97723037 C-2.19078913 46.93067815 -2.19694779 41.8841854 -2.21146011 36.83765221 C-2.22499971 32.09107401 -2.22923 27.34457999 -2.22621536 22.59798431 C-2.22676715 20.85284023 -2.23076611 19.10769342 -2.23841095 17.36256599 C-2.2483156 14.98568059 -2.24598541 12.60911585 -2.24050903 10.23222351 C-2.24633472 9.53670039 -2.2521604 8.84117728 -2.25816262 8.1245777 C-2.23555191 4.51065618 -2.06800657 3.10200985 0 0 Z M0 1 C1 4 1 4 1 4 Z M107 67 C108 70 108 70 108 70 Z M4 187 C5 189 5 189 5 189 Z M150 260 C151 262 151 262 151 262 Z " fill="red" transform="translate(452,285)"/>
<path d="M0 0 C0.33 0 0.66 0 1 0 C1 56.76 1 113.52 1 172 C1.66 172 2.32 172 3 172 C2.60534319 174.86126184 2.26087817 175.79139704 -0.046875 177.63671875 C-1.01367188 178.31154297 -1.01367188 178.31154297 -2 179 C-1.89290847 155.80892126 -1.78017399 132.61787613 -1.66066074 109.42685795 C-1.60530538 98.65966456 -1.55181965 87.89246786 -1.50268555 77.12524414 C-1.45987198 67.74412672 -1.41360125 58.36303393 -1.36312145 48.98195451 C-1.33649766 44.01151227 -1.3116441 39.04107498 -1.29092598 34.07060432 C-1.27139449 29.39789483 -1.24726139 24.72523231 -1.21950912 20.05256462 C-1.21012014 18.33239466 -1.20245156 16.61221437 -1.19658089 14.89202881 C-1.18835094 12.55390809 -1.17408338 10.21590236 -1.15821838 7.87782288 C-1.15176583 6.56611146 -1.14531328 5.25440004 -1.1386652 3.9029398 C-1 1 -1 1 0 0 Z M1 173 C2 175 2 175 2 175 Z " fill="red" transform="translate(601,372)"/>
<path d="M0 0 C0.66 0 1.32 0 2 0 C2.33 1.98 2.66 3.96 3 6 C2.01 6.495 2.01 6.495 1 7 C0.67 65.08 0.34 123.16 0 183 C-0.33 183 -0.66 183 -1 183 C-1.17716124 159.58280468 -1.34284203 136.16555264 -1.49477577 112.74817944 C-1.56558686 101.87561156 -1.64018485 91.00309407 -1.72363281 80.13061523 C-1.79633845 70.65651763 -1.86200512 61.18240217 -1.91914403 51.70819741 C-1.94965925 46.68956144 -1.98375005 41.67100615 -2.02626419 36.65245628 C-2.06614039 31.93219071 -2.09662936 27.21195904 -2.11981392 22.49158287 C-2.13001191 20.75609434 -2.14368566 19.02062235 -2.16103554 17.28519058 C-2.1841545 14.9214916 -2.19493497 12.55805188 -2.20254517 10.19425964 C-2.2122618 9.50262747 -2.22197843 8.81099531 -2.2319895 8.09840459 C-2.22914217 4.48438643 -2.06950773 3.1042616 0 0 Z M0 1 C1 4 1 4 1 4 Z " fill="#353449" transform="translate(452,285)"/>
<path d="M0 0 C0.33 0 0.66 0 1 0 C1.06058594 0.62648438 1.12117187 1.25296875 1.18359375 1.8984375 C1.26738281 2.71570313 1.35117187 3.53296875 1.4375 4.375 C1.51871094 5.18710937 1.59992187 5.99921875 1.68359375 6.8359375 C1.89090114 9.04272805 1.89090114 9.04272805 3 11 C3.08683445 13.77160626 3.1155579 16.51774765 3.09765625 19.2890625 C3.0962413 20.10748627 3.09482635 20.92591003 3.09336853 21.76913452 C3.0877629 24.38779325 3.07520948 27.00636704 3.0625 29.625 C3.05748572 31.39843627 3.05292269 33.17187387 3.04882812 34.9453125 C3.03779164 39.29690782 3.02052325 43.6484395 3 48 C1.515 48.495 1.515 48.495 0 49 C0 32.83 0 16.66 0 0 Z " fill="#454559" transform="translate(656,352)"/>
<path d="M0 0 C2 2 2 2 2.24723816 3.96183777 C2.24510063 5.16638359 2.24510063 5.16638359 2.24291992 6.39526367 C2.24599655 7.30769333 2.24907318 8.22012299 2.25224304 9.16020203 C2.24505753 10.15276505 2.23787201 11.14532806 2.23046875 12.16796875 C2.23001053 13.19497391 2.22955231 14.22197906 2.2290802 15.28010559 C2.226052 17.46498766 2.2181489 19.64986747 2.20581055 21.8347168 C2.18782045 25.1288243 2.18529914 28.4226459 2.18554688 31.71679688 C2.16621054 42.8504057 1.97713648 53.90517184 1 65 C0.67 65 0.34 65 0 65 C-0.153828 56.96811966 -0.30200904 48.93616355 -0.4429636 40.90404797 C-0.50859084 37.17449931 -0.57616944 33.44500722 -0.64819336 29.71557617 C-0.71761677 26.11709434 -0.78193295 22.51855429 -0.84269524 18.91991615 C-0.86678788 17.54635613 -0.89272683 16.17282723 -0.92053413 14.79933739 C-0.95913961 12.87697743 -0.99059786 10.95447795 -1.02172852 9.03198242 C-1.04171402 7.93722092 -1.06169952 6.84245941 -1.08229065 5.71452332 C-1 3 -1 3 0 0 Z " fill="#524652" transform="translate(558,353)"/>
<path d="M0 0 C5.77241422 0.24051726 8.61447266 1.88985502 13.06640625 5.5 C15.53228885 7.41292711 18.16152798 8.72268759 21 10 C21 10.66 21 11.32 21 12 C17.62537285 11.45276317 15.91765 10.9451 13 9 C11.5317308 8.50787294 10.05108728 8.05174509 8.5625 7.625 C4.81295343 6.42196958 2.41225591 5.25130145 0 2 C0 1.34 0 0.68 0 0 Z " fill="#2C2F51" transform="translate(633,376)"/>
<path d="M0 0 C0.66 0 1.32 0 2 0 C2.33 1.98 2.66 3.96 3 6 C2.01 6.495 2.01 6.495 1 7 C0.67 15.58 0.34 24.16 0 33 C-0.33 33 -0.66 33 -1 33 C-1.19249739 28.78293756 -1.37118014 24.56558401 -1.53710938 20.34741211 C-1.59549105 18.91268244 -1.65763834 17.47810083 -1.72363281 16.04370117 C-1.8178682 13.98123128 -1.89852573 11.9186072 -1.9765625 9.85546875 C-2.02893066 8.61434326 -2.08129883 7.37321777 -2.13525391 6.09448242 C-2 3 -2 3 0 0 Z M0 1 C1 4 1 4 1 4 Z " fill="#313143" transform="translate(452,285)"/>
<path d="M0 0 C0 0.66 0 1.32 0 2 C-2.48787739 2.88852764 -3.58372698 3.17660068 -6.0625 2.125 C-6.701875 1.75375 -7.34125 1.3825 -8 1 C-8.99 0.67 -9.98 0.34 -11 0 C-11 -0.66 -11 -1.32 -11 -2 C-6.3657546 -3.48957888 -4.01235915 -2.6749061 0 0 Z " fill="#7D7683" transform="translate(475,478)"/>
<path d="M0 0 C5.28137429 0.51525603 8.57221156 2.25477117 13 5 C13 5.66 13 6.32 13 7 C7.92990529 6.52467862 4.02506742 3.95637706 0 1 C0 0.67 0 0.34 0 0 Z " fill="#484A69" transform="translate(641,381)"/>
<path d="M0 0 C2.76276177 0.52268466 5.3260876 1.10869587 8 2 C7.67 4.97 7.34 7.94 7 11 C4.64046906 8.64046906 4.50858587 7.22104383 4 4 C3.34 4 2.68 4 2 4 C1.34 2.68 0.68 1.36 0 0 Z " fill="#413E50" transform="translate(650,339)"/>
<path d="M0 0 C0.99 0 1.98 0 3 0 C2.67 1.65 2.34 3.3 2 5 C1.01 5.33 0.02 5.66 -1 6 C-1.33 6.66 -1.66 7.32 -2 8 C-2.66 6.35 -3.32 4.7 -4 3 C-3.01 2.67 -2.02 2.34 -1 2 C-0.67 1.34 -0.34 0.68 0 0 Z " fill="#444146" transform="translate(463,267)"/>
<path d="M0 0 C6.52307692 0.61538462 6.52307692 0.61538462 8.9375 2.5625 C9.288125 3.036875 9.63875 3.51125 10 4 C7.61435923 3.42415568 5.33317216 2.77772405 3 2 C3 2.66 3 3.32 3 4 C2.34 4 1.68 4 1 4 C0.67 2.68 0.34 1.36 0 0 Z " fill="#1F2246" transform="translate(633,376)"/>
<path d="M0 0 C0.33 0.99 0.66 1.98 1 3 C-2.625 6 -2.625 6 -6 6 C-4.75453595 2.26360784 -3.36595047 1.81243487 0 0 Z " fill="#484555" transform="translate(496,249)"/>
<path d="M0 0 C1.65 0 3.3 0 5 0 C5.33 0.99 5.66 1.98 6 3 C4.68 3.33 3.36 3.66 2 4 C1.34 2.68 0.68 1.36 0 0 Z " fill="#5E5166" transform="translate(469,477)"/>
<path d="M0 0 C1.32 0.33 2.64 0.66 4 1 C3.01 1.495 3.01 1.495 2 2 C1.34 1.34 0.68 0.68 0 0 Z " fill="#040000" transform="translate(558,530)"/>
<path d="M0 0 C0.66 0.66 1.32 1.32 2 2 C1.01 2 0.02 2 -1 2 C-0.67 1.34 -0.34 0.68 0 0 Z " fill="#2D3131" transform="translate(451,471)"/>
<path d="" fill="#817B7B" transform="translate(0,0)"/>
<path d="" fill="#080509" transform="translate(0,0)"/>
<path d="" fill="#2C2C37" transform="translate(0,0)"/>
<path d="" fill="#040102" transform="translate(0,0)"/>
<path d="" fill="#050303" transform="translate(0,0)"/>
<path d="M0 0 C2 1 2 1 2 1 Z " fill="#CEC7C1" transform="translate(619,239)"/>
<path d="" fill="#040304" transform="translate(0,0)"/>
<path d="" fill="#020000" transform="translate(0,0)"/>
<path d="" fill="#5F5866" transform="translate(0,0)"/>
<path d="" fill="#F2F0ED" transform="translate(0,0)"/>
<path d="" fill="#020000" transform="translate(0,0)"/>
<path d="" fill="#6A6765" transform="translate(0,0)"/>
<path d="" fill="#040304" transform="translate(0,0)"/>
<path d="" fill="#010001" transform="translate(0,0)"/>
<path d="" fill="#040001" transform="translate(0,0)"/>
<path d="" fill="#57595E" transform="translate(0,0)"/>
<path d="" fill="#060406" transform="translate(0,0)"/>
<path d="" fill="#FEFFFF" transform="translate(0,0)"/>
<path d="" fill="#D9DBD5" transform="translate(0,0)"/>
<path d="" fill="#E5EBEF" transform="translate(0,0)"/>
<path d="" fill="#231B11" transform="translate(0,0)"/>
<path d="" fill="#C3BCBC" transform="translate(0,0)"/>
<path d="" fill="#C1BBB1" transform="translate(0,0)"/>
<path d="" fill="#B6BACB" transform="translate(0,0)"/>
<path d="" fill="#282016" transform="translate(0,0)"/>
<path d="" fill="#D9D5CD" transform="translate(0,0)"/>
<path d="" fill="#000000" transform="translate(0,0)"/>
<path d="" fill="#2C1D1B" transform="translate(0,0)"/>
<path d="" fill="#605C71" transform="translate(0,0)"/>
<path d="" fill="#726758" transform="translate(0,0)"/>
<path d="" fill="#3A2B20" transform="translate(0,0)"/>
<path d="" fill="#434548" transform="translate(0,0)"/>
<path d="" fill="#776959" transform="translate(0,0)"/>
<path d="" fill="#140901" transform="translate(0,0)"/>
<path d="" fill="#221B18" transform="translate(0,0)"/>
<path d="" fill="#CAC9C6" transform="translate(0,0)"/>
<path d="" fill="#030100" transform="translate(0,0)"/>
<path d="" fill="#FEFDF8" transform="translate(0,0)"/>
<path d="" fill="#F3F2FA" transform="translate(0,0)"/>
<path d="" fill="#090409" transform="translate(0,0)"/>
<path d="" fill="#040504" transform="translate(0,0)"/>
<path d="" fill="#FCF7F7" transform="translate(0,0)"/>
<path d="" fill="#767475" transform="translate(0,0)"/>
<path d="" fill="#000000" transform="translate(0,0)"/>
<path d="" fill="#F7F5F5" transform="translate(0,0)"/>
<path d="" fill="#848280" transform="translate(0,0)"/>
<path d="" fill="#2A1F1F" transform="translate(0,0)"/>
<path d="" fill="#110602" transform="translate(0,0)"/>
<path d="" fill="#3A3029" transform="translate(0,0)"/>
<path d="" fill="#251F32" transform="translate(0,0)"/>
<path d="" fill="#504D50" transform="translate(0,0)"/>
<path d="" fill="#45473F" transform="translate(0,0)"/>
<path d="" fill="#D8D1CC" transform="translate(0,0)"/>
<path d="" fill="#EBE9E1" transform="translate(0,0)"/>
<path d="" fill="#010101" transform="translate(0,0)"/>
</svg>
